<?xml version="1.0" standalone="no"?>
<!DOCTYPE svg PUBLIC "-//W3C//DTD SVG 20010904//EN"
 "http://www.w3.org/TR/2001/REC-SVG-20010904/DTD/svg10.dtd">
<svg version="1.0" xmlns="http://www.w3.org/2000/svg"
 width="512.000000pt" height="512.000000pt" viewBox="0 0 512.000000 512.000000"
 preserveAspectRatio="xMidYMid meet">
<metadata>
Created by potrace 1.11, written by Peter Selinger 2001-2013
</metadata>
<g transform="translate(0.000000,512.000000) scale(0.100000,-0.100000)"
fill="#000000" stroke="none">
<path d="M2601 5086 l-63 -32 -4 -225 c-2 -123 -8 -280 -14 -349 -6 -69 -14
-229 -17 -357 l-5 -232 63 4 c34 3 64 7 66 9 2 2 -1 91 -8 197 -26 441 31 667
219 861 l56 57 -105 51 c-57 27 -108 50 -114 49 -5 0 -39 -15 -74 -33z"/>
<path d="M3118 4363 c7 -3 16 -2 19 1 4 3 -2 6 -13 5 -11 0 -14 -3 -6 -6z"/>
<path d="M3417 4299 c7 -7 15 -10 18 -7 3 3 -2 9 -12 12 -14 6 -15 5 -6 -5z"/>
<path d="M3500 4265 c14 -8 30 -14 35 -14 6 0 -1 6 -15 14 -14 8 -29 14 -35
14 -5 0 1 -6 15 -14z"/>
<path d="M3560 4240 c8 -5 20 -10 25 -10 6 0 3 5 -5 10 -8 5 -19 10 -25 10 -5
0 -3 -5 5 -10z"/>
<path d="M3610 4220 c8 -6 58 -36 110 -67 52 -31 100 -62 108 -69 7 -8 16 -14
20 -14 4 0 19 -10 34 -23 14 -12 36 -29 48 -37 24 -16 31 -22 116 -95 128
-110 254 -258 341 -400 7 -11 30 -56 52 -101 211 -432 208 -1168 -7 -1759 -51
-142 -141 -335 -195 -419 -13 -21 -96 -149 -112 -175 -27 -41 -129 -167 -141
-174 -8 -4 -14 -16 -14 -26 0 -22 -123 -136 -232 -214 -42 -30 -126 -80 -185
-110 -182 -93 -321 -135 -640 -198 -247 -48 -422 -59 -538 -34 -38 9 -88 20
-110 24 -62 14 -315 80 -360 95 -22 8 -71 24 -110 36 -99 32 -240 99 -325 154
-85 55 -208 175 -269 264 -24 34 -50 62 -57 62 -7 0 -66 -16 -131 -35 -165
-50 -345 -139 -415 -207 -112 -108 -113 -195 -3 -304 233 -229 968 -385 1825
-386 841 -2 1575 146 1828 368 130 114 123 245 -20 352 -51 39 -207 122 -228
122 -17 0 -11 11 43 79 374 462 568 1034 569 1675 0 271 -48 561 -122 740
-113 271 -340 533 -640 738 -76 53 -295 178 -240 138z"/>
</g>
</svg>
