<?xml version="1.0" encoding="iso-8859-1"?>
<!-- Generator: Adobe Illustrator 19.0.0, SVG Export Plug-In . SVG Version: 6.00 Build 0)  -->
<svg version="1.1" id="Capa_1" xmlns="http://www.w3.org/2000/svg" xmlns:xlink="http://www.w3.org/1999/xlink" x="0px" y="0px"
	 viewBox="0 0 444.03 444.03" style="enable-background:new 0 0 444.03 444.03;" xml:space="preserve">
<g>
	<g>
		<path d="M430.015,318.375h-19.2c0.049-0.666,0.049-1.334,0-2V89.015c0.001-7.639-6.122-13.869-13.76-14h-350
			c-7.732,0-14,6.268-14,14v227.36c-0.048,0.666-0.048,1.334,0,2h-19.04c-8.114,0.431-14.363,7.323-14,15.44v19.76
			c-0.363,8.117,5.886,15.009,14,15.44h416c8.114-0.431,14.363-7.323,14-15.44v-19.76
			C444.378,325.698,438.129,318.806,430.015,318.375z M45.055,89.015c0-1.105,0.895-2,2-2h350c1.105,0,2,0.895,2,2v227.36
			c0,1.105-0.895,2-2,2h-350c-1.105,0-2-0.895-2-2V89.015z M430.415,357.015h-416.4c-0.8,0-2-1.36-2-3.44v-19.76
			c0-2.08,1.2-3.44,2-3.44h416c0.8,0,2,1.36,2,3.44l0.4,19.76C432.415,355.655,431.215,357.015,430.415,357.015z"/>
	</g>
</g>
<g>
	<g>
		<path d="M360.655,101.335H83.375c-7.609-0.002-13.826,6.073-14,13.68v175.04c0,7.732,6.268,14,14,14h277.28
			c7.732,0,14-6.268,14-14v-175.04C374.481,107.408,368.264,101.333,360.655,101.335z M362.655,289.975c0,1.105-0.895,2-2,2H83.375
			c-1.105,0-2-0.895-2-2v-174.96c0-1.105,0.895-2,2-2h277.28c1.105,0,2,0.895,2,2V289.975z"/>
	</g>
</g>
<g>
</g>
<g>
</g>
<g>
</g>
<g>
</g>
<g>
</g>
<g>
</g>
<g>
</g>
<g>
</g>
<g>
</g>
<g>
</g>
<g>
</g>
<g>
</g>
<g>
</g>
<g>
</g>
<g>
</g>
</svg>
