<svg xmlns="http://www.w3.org/2000/svg" viewBox="0 0 40 40"><defs><style>.cls-1{fill:#fefefe;}.cls-2{fill:#4285f4;}.cls-3{fill:#34a853;}.cls-4{fill:#fbbc05;}.cls-5{fill:#ea4335;}.cls-6{fill:none;}</style></defs><title>google_logo</title><g id="Layer_2" data-name="Layer 2"><g id="Layer_2-2" data-name="Layer 2"><rect id="path-2" class="cls-1" width="40" height="40" rx="2" ry="2"/><g id="logo_googleg_48dp" data-name="logo googleg 48dp"><path id="Shape" class="cls-2" d="M28.64,20.2a10.34,10.34,0,0,0-.16-1.84H20v3.48h4.84A4.14,4.14,0,0,1,23,24.56v2.26H26a8.78,8.78,0,0,0,2.68-6.62Z"/><path id="Shape-2" data-name="Shape" class="cls-3" d="M20,29a8.59,8.59,0,0,0,6-2.18L23,24.56A5.43,5.43,0,0,1,15,21.71H12V24a9,9,0,0,0,8,5Z"/><path id="Shape-3" data-name="Shape" class="cls-4" d="M15,21.71a5.32,5.32,0,0,1,0-3.42V16H12A9,9,0,0,0,12,24l3-2.33Z"/><path id="Shape-4" data-name="Shape" class="cls-5" d="M20,14.58a4.86,4.86,0,0,1,3.44,1.35L26,13.34A8.65,8.65,0,0,0,20,11a9,9,0,0,0-8,5l3,2.33a5.36,5.36,0,0,1,5-3.71Z"/><path id="Shape-5" data-name="Shape" class="cls-6" d="M11,11H29V29H11Z"/></g></g></g></svg>