<svg xmlns="http://www.w3.org/2000/svg" viewBox="0 0 242.66 139.89">
  <defs>
  <style>.cls-1,.cls-4{fill:#ccc;}.cls-2{fill:none;}.cls-2,.cls-4{stroke:#000;stroke-miterlimit:10;}.cls-3{fill:#999;}</style>
</defs>
<title>Asset 2</title>
<g id="Layer_2" data-name="Layer 2">
  <g id="database">
  <path class="cls-1" d="M103.16,91.47s0,6.5,27,6.75c27.42-.75,27-6.75,27-6.75v4.26s-.33,6.32-27,6.65c-26.67-.5-26.93-6.33-26.93-6.33Z"/>
<path class="cls-1" d="M103.16,113.82s0,6.5,27,6.75c27.42-.75,27-6.75,27-6.75v4.26s-.33,6.32-27,6.65c-26.67-.5-26.93-6.33-26.93-6.33Z"/>
<ellipse class="cls-2" cx="130.16" cy="91.47" rx="27" ry="6.75"/>
<path class="cls-2" d="M103.16,95.73s0,6.22,27,6.65c27-.57,27-6.65,27-6.65"/>
<path class="cls-2" d="M103.16,113.82s0,6.22,27,6.65c27-.57,27-6.65,27-6.65"/>
<path class="cls-2" d="M103.16,105s0,6.22,27,6.65c27-.57,27-6.65,27-6.65"/>
<path class="cls-2" d="M157.16,91.47v26.9s0,6.08-27,6.65c-22-.35-26.09-4.56-26.83-6.1a1.43,1.43,0,0,1-.17-.55V91.47"/>
</g>
<g id="apple">
  <ellipse class="cls-3" cx="132.12" cy="41.23" rx="17.26" ry="4.85"/>
<path class="cls-2" d="M132.33,7.33c-2,.26-4.22.07-6.11.59a11.42,11.42,0,0,0-4.73,2.77c-2.56,2.53-5.15,6-5.47,9.74a32,32,0,0,0,.26,6.14c.18,1.64.74,3.17,1,4.76.78,1.56,1.67,3.07,2.44,4.64a11.08,11.08,0,0,0,3.92,4.75,21.17,21.17,0,0,0,6,2.22,12.39,12.39,0,0,0,4,.6A31.84,31.84,0,0,0,137,43a15,15,0,0,0,9.23-4.79,22.5,22.5,0,0,0,5-10.27A23.92,23.92,0,0,0,151,17c-1-3.53-4.12-6.48-7.22-8.34a13.51,13.51,0,0,0-6-1.92A27.47,27.47,0,0,0,132.33,7.33Z"/>
<path class="cls-2" d="M132.76,16.39c.71,1.08,1.22,1.21,2.4.35.47-.35.83-.83,1.34-1.14,2.33-1.41,5.18-.94,7.53.13,0-1.54-.33-3.06-2-3.62a10.09,10.09,0,0,0-3.62-.47,31.12,31.12,0,0,0-4.48.68,15.55,15.55,0,0,0-3.41.83A14.78,14.78,0,0,1,132.76,16.39Z"/>
<path class="cls-1" d="M133,11.06a.56.56,0,0,1,0-.21c0-.7-.05-1.39-.08-2.09-.18,0-.39,0-.63,0a15.37,15.37,0,0,0-2.38.1,7.4,7.4,0,0,0-2.1.32c.42.71,1.64,1.12,2.27,1.42A5.15,5.15,0,0,0,133,11.06Z"/>
<path class="cls-4" d="M151.76,20.68a29.84,29.84,0,0,1-19.2,2.2c-3.39-.78-6.88-1.95-9.22-4.68A7.18,7.18,0,0,1,121.6,14a12.66,12.66,0,0,1,.74-4,10.47,10.47,0,0,0-.79.7c-2.56,2.53-5.15,6-5.47,9.74a32,32,0,0,0,.26,6.14c.18,1.64.74,3.17,1,4.76.78,1.56,1.67,3.07,2.44,4.64a11.08,11.08,0,0,0,3.92,4.75,21.17,21.17,0,0,0,6,2.22,12.39,12.39,0,0,0,4,.6,31.84,31.84,0,0,0,3.34-.55,15,15,0,0,0,9.23-4.79,22.5,22.5,0,0,0,5-10.27A26.92,26.92,0,0,0,151.76,20.68Z"/>
<path d="M136.31.94a14.91,14.91,0,0,0-2-.94,10.2,10.2,0,0,0-1.22.58l-.07,0c.2,3.48-.36,7-.32,10.44l1.2-.07c-.15-3.29-.81-7.28,2.28-10Z"/>
</g>
<g id="thread">
  <circle class="cls-2" cx="130.16" cy="136.21" r="3.18"/>
<path class="cls-2" d="M133.35,136.21h39.58s47.52,1,47.52-47.52V68"/>
<path class="cls-2" d="M127,136.21H87.4s-47.52,1-47.52-47.52V70.21"/>
<line class="cls-2" x1="130.16" y1="133.03" x2="130.16" y2="127.21"/>
<path class="cls-2" d="M224.95,71.94l-3.37-3.37a1.49,1.49,0,0,0-2.25,0L216,71.94"/>
<path class="cls-2" d="M136.89,54.4,133.52,51a1.49,1.49,0,0,0-2.25,0L127.9,54.4"/>
</g>
<g id="laptop">
  <path class="cls-4" d="M.5,61.54v2.25A2.11,2.11,0,0,0,2.75,66H77a2.2,2.2,0,0,0,2.25-2.25V61.54Z"/>
<path class="cls-4" d="M7.25,25.54V23.29A2.2,2.2,0,0,1,9.5,21H70.25a2.2,2.2,0,0,1,2.25,2.25v2.25Z"/>
<line class="cls-2" x1="7.25" y1="25.54" x2="7.25" y2="61.54"/>
<line class="cls-2" x1="72.5" y1="25.54" x2="72.5" y2="61.54"/>
</g>
<g id="form">
  <path d="M31.11,41.1H48.9a.5.5,0,0,0,0-1H31.11a.5.5,0,0,0,0,1Z"/>
<path d="M31.11,44.67H48.9a.5.5,0,0,0,0-1H31.11a.5.5,0,0,0,0,1Z"/>
<path d="M31.11,47.83H48.9a.5.5,0,0,0,0-1H31.11a.5.5,0,0,0,0,1Z"/>
<path d="M31.11,51H42.83a.5.5,0,0,0,0-1H31.11a.5.5,0,0,0,0,1Z"/>
<polyline class="cls-2" points="27 61.54 27 34.41 54.5 34.41 54.5 61.54"/>
<line class="cls-2" x1="132.4" y1="80.88" x2="132.4" y2="50.5"/>
</g>
<g id="inbox">
  <path class="cls-2" d="M198.75,35.85a1.38,1.38,0,0,1,1.5-1.5h40.42a1.47,1.47,0,0,1,1.5,1.5V61.3a1.51,1.51,0,0,1-1.5,1.5H200.24a1.42,1.42,0,0,1-1.5-1.5C198.74,59.74,198.75,35.85,198.75,35.85Z"/>
<path class="cls-2" d="M199.11,34.77l20,14.6a1.72,1.72,0,0,0,2.66,0l20-14.6"/>
<path d="M216.62,47.47,209.08,55a.5.5,0,0,0,.71.71l7.53-7.53a.5.5,0,0,0-.71-.71Z"/>
<path d="M223.53,48.18l7.5,7.5a.5.5,0,0,0,.71-.71l-7.5-7.5a.5.5,0,0,0-.71.71Z"/>
</g>
</g>
</svg>