<svg xmlns="http://www.w3.org/2000/svg" viewBox="0 0 476.49 181.26"><defs><style>.cls-1,.cls-3,.cls-4{fill:#fefefe;}.cls-1{opacity:0.33;}.cls-2{fill:#fff;opacity:0.9;}.cls-4{font-size:159.12px;font-family:OpenSans-Semibold, Open Sans;font-weight:700;letter-spacing:-0.1em;}.cls-5{letter-spacing:-0.08em;}</style></defs><title>logo_inv</title><g id="Layer_2" data-name="Layer 2"><g id="Layer_3" data-name="Layer 3"><path class="cls-1" d="M50.55,23.69c-5.68.75-12.2.22-17.69,1.72a33.06,33.06,0,0,0-13.69,8C11.75,40.74,4.25,50.92,3.34,61.61a92.53,92.53,0,0,0,.74,17.77c.53,4.74,2.15,9.17,3,13.77,2.27,4.51,4.83,8.89,7.05,13.43,3.42,6.29,6,9.62,11.34,13.74,5.2,3.31,11.53,4.86,17.44,6.41,3.81,1,7.57,2,11.54,1.73a92.16,92.16,0,0,0,9.67-1.59C74.63,125,83.65,121.16,90.83,113a65.11,65.11,0,0,0,14.38-29.74c2-9.86,2.4-22-.48-31.68-3-10.23-11.93-18.76-20.89-24.12a39.1,39.1,0,0,0-17.3-5.55C61.1,21.52,55.9,23,50.55,23.69Z"/><path class="cls-2" d="M51.25,47.42a18.94,18.94,0,0,1,2.17,5.73,59.91,59.91,0,0,1,11.13-5.42c10.71-3.45,16.72-4,22.19-1.12-.29-2.71-3.35-7.6-5.17-8.73a12,12,0,0,0-5-1.93,33.7,33.7,0,0,0-7.87-.08c-4.31.19-11.93,1.59-13.5,1.86a51.12,51.12,0,0,0-9.88,2.78A23.76,23.76,0,0,1,51.25,47.42Z"/><path class="cls-2" d="M52.48,34.48a1.63,1.63,0,0,1-.14-.62c-.07-2-.15-4-.23-6.05-.53,0-1.13,0-1.83-.05a64.86,64.86,0,0,0-6.83.11A19.15,19.15,0,0,0,37.33,29a16.71,16.71,0,0,0,6.44,4.26A17.2,17.2,0,0,0,52.48,34.48Z"/><path class="cls-3" d="M106.63,62.42c-17.26,8-36.92,10.66-55.58,6.35-9.81-2.26-19.92-5.64-26.68-13.53a20.78,20.78,0,0,1-5-12.09C19,39,20.48,35.25,21.42,31.42a29.53,29.53,0,0,0-2.25,2C11.75,40.74,4.25,50.92,3.34,61.61c-.49,5.78.11,12.1.76,17.85a66.66,66.66,0,0,0,3,13.77,105,105,0,0,0,7.05,13.43c3.15,5.28,6.06,10.38,11.34,13.74S37,125.25,42.92,126.8c3.81,1,7.57,2,11.54,1.73a92.16,92.16,0,0,0,9.67-1.59c10.51-1.83,19.53-5.69,26.71-13.87a65.11,65.11,0,0,0,14.38-29.74A77.93,77.93,0,0,0,106.63,62.42Z"/><path class="cls-3" d="M62.09,5.19A13.52,13.52,0,0,0,59.2,3.35a9.51,9.51,0,0,0-2.82-.88,5.85,5.85,0,0,0-3,1,2.65,2.65,0,0,0-.74.73c0,.09,0,.76,0,.85.54,10-1.08,19.49-1,29.48a16.42,16.42,0,0,0,3.45-.74c-.43-9.53-2.32-20.67,6.61-28.43A2.31,2.31,0,0,1,62.09,5.19Z"/><text class="cls-4" transform="translate(126.92 136.35)">N<tspan class="cls-5" x="108.71" y="0">ove</tspan></text><path class="cls-1" d="M90.39,113.57c-7.11,7.83-16,11.58-26.26,13.37a92.16,92.16,0,0,1-9.67,1.59c-4,.26-7.73-.73-11.54-1.73-5.91-1.55-12.23-3.11-17.44-6.41A28.34,28.34,0,0,1,17,111.27c-10.4,2.57-17,6.34-17,10.54,0,7.76,22.37,14,50,14s50-6.29,50-14C99.92,118.73,96.38,115.88,90.39,113.57Z"/></g></g></svg>