<svg xmlns="http://www.w3.org/2000/svg" viewBox="0 0 476.49 181.26"><ellipse fill="%23c0392b" cx="49.96" cy="121.81" rx="49.96" ry="14.05"/><path fill="%23ff9900" d="M50.55,23.69c-5.68.75-12.2.22-17.69,1.72a33.06,33.06,0,0,0-13.69,8C11.75,40.74,4.25,50.92,3.34,61.61a92.53,92.53,0,0,0,.74,17.77c.53,4.74,2.15,9.17,3,13.77,2.27,4.51,4.83,8.89,7.05,13.43,2.71,5.52,6.06,10.38,11.34,13.74S37,125.17,42.9,126.72c3.81,1,7.57,2,11.54,1.73a92.16,92.16,0,0,0,9.67-1.59C74.63,125,83.65,121.16,90.83,113a65.11,65.11,0,0,0,14.38-29.74c2-9.86,2.4-22-.48-31.68-3-10.23-11.93-18.76-20.89-24.12a39.1,39.1,0,0,0-17.3-5.55C61.1,21.52,55.9,23,50.55,23.69Z"/><path fill="%23ffffff" d="M51.79,49.92c2.06,3.12,3.53,3.51,6.94,1,1.37-1,2.4-2.41,3.88-3.31,6.75-4.09,15-2.72,21.78.37.08-4.47-1-8.87-5.74-10.47a29.2,29.2,0,0,0-10.49-1.36,90.08,90.08,0,0,0-13,2c-3.1.6-6.94,1-9.86,2.39C48,42.77,49.88,47,51.79,49.92Z"/><path fill="%23ffffff" d="M52.48,34.48a1.63,1.63,0,0,1-.14-.62c-.07-2-.15-4-.23-6.05-.53,0-1.13,0-1.83-.05a44.48,44.48,0,0,0-6.89.29c-1.52.17-4.43.14-6.06.92,1.2,2.06,4.75,3.25,6.57,4.12A14.92,14.92,0,0,0,52.48,34.48Z"/><path fill="%233498db" d="M106.8,62.33c-17.26,8-36.92,10.66-55.58,6.35C41.42,66.42,31.31,63,24.54,55.15a20.78,20.78,0,0,1-5-12.09c-.31-4.17,1.21-7.82,2.14-11.64a30.31,30.31,0,0,0-2.29,2C11.94,40.74,4.44,50.92,3.53,61.61a92.53,92.53,0,0,0,.74,17.77c.53,4.74,2.15,9.17,3,13.77,2.27,4.51,4.83,8.89,7.05,13.43C17,112.09,20.38,117,25.65,120.31s11.53,4.86,17.44,6.41c3.81,1,7.57,2,11.54,1.73a92.16,92.16,0,0,0,9.67-1.59C74.82,125,83.83,121.16,91,113A65.11,65.11,0,0,0,105.4,83.25,77.93,77.93,0,0,0,106.8,62.33Z"/><path fill="%23a22800" d="M62.09,5.19a43.14,43.14,0,0,0-5.71-2.72,29.51,29.51,0,0,0-3.52,1.67l-.22.1c.58,10.06-1,20.13-.93,30.21q1.74-.08,3.47-.22c-.43-9.53-2.34-21.07,6.59-28.84A2.31,2.31,0,0,1,62.09,5.19Z"/><text font-size="159.12px" fill="#444" font-family="OpenSans-Semibold, Open Sans" font-weight="700" letter-spacing="-0.1em" transform="translate(126.92 136.35)">N<tspan letter-spacing="-0.08em" x="108.71" y="0">ove</tspan></text></svg>