<svg xmlns="http://www.w3.org/2000/svg" viewBox="0 0 106.99 133.39"><title>nove logo</title><ellipse fill="#c0392b" cx="49.96" cy="119.34" rx="49.96" ry="14.05"/><path fill="#ff9900" d="M50.55,21.22c-5.68.75-12.2.22-17.69,1.72a33.06,33.06,0,0,0-13.69,8C11.75,38.27,4.25,48.45,3.34,59.14A92.53,92.53,0,0,0,4.08,76.9c.53,4.74,2.15,9.17,3,13.77,2.27,4.51,4.83,8.89,7.05,13.43,2.71,5.52,6.06,10.38,11.34,13.74S37,122.69,42.9,124.25c3.81,1,7.57,2,11.54,1.73a92.16,92.16,0,0,0,9.67-1.59c10.51-1.83,19.53-5.69,26.71-13.87a65.11,65.11,0,0,0,14.38-29.74c2-9.86,2.4-22-.48-31.68-3-10.23-11.93-18.76-20.89-24.12a39.1,39.1,0,0,0-17.3-5.55C61.1,19,55.9,20.51,50.55,21.22Z"/><path fill="#fefefe" d="M51.79,47.44c2.06,3.12,3.53,3.51,6.94,1,1.37-1,2.4-2.41,3.88-3.31,6.75-4.09,15-2.72,21.78.37.08-4.47-1-8.87-5.74-10.47a29.2,29.2,0,0,0-10.49-1.36,90.08,90.08,0,0,0-13,2c-3.1.6-6.94,1-9.86,2.39C48,40.29,49.88,44.56,51.79,47.44Z"/><path fill="#fefefe" d="M52.48,32a1.63,1.63,0,0,1-.14-.62c-.07-2-.15-4-.23-6.05-.53,0-1.13,0-1.83-.05a44.48,44.48,0,0,0-6.89.29c-1.52.17-4.43.14-6.06.92,1.2,2.06,4.75,3.25,6.57,4.12A14.92,14.92,0,0,0,52.48,32Z"/><path fill="#3498db" d="M106.8,59.86c-17.26,8-36.92,10.66-55.58,6.35-9.81-2.26-19.92-5.64-26.68-13.53a20.78,20.78,0,0,1-5-12.09c-.31-4.17,1.21-7.82,2.14-11.64a30.31,30.31,0,0,0-2.29,2C11.94,38.27,4.44,48.45,3.53,59.14A92.53,92.53,0,0,0,4.27,76.9c.53,4.74,2.15,9.17,3,13.77,2.27,4.51,4.83,8.89,7.05,13.43,2.71,5.52,6.06,10.38,11.34,13.74s11.53,4.86,17.44,6.41c3.81,1,7.57,2,11.54,1.73a92.16,92.16,0,0,0,9.67-1.59c10.51-1.83,19.53-5.69,26.71-13.87A65.11,65.11,0,0,0,105.4,80.78,77.93,77.93,0,0,0,106.8,59.86Z"/><path fill="#a22800" d="M62.09,2.72A43.14,43.14,0,0,0,56.38,0a29.51,29.51,0,0,0-3.52,1.67l-.22.1c.58,10.06-1,20.13-.93,30.21q1.74-.08,3.47-.22c-.43-9.53-2.34-21.07,6.59-28.84A2.31,2.31,0,0,1,62.09,2.72Z"/></svg>