<svg xmlns="http://www.w3.org/2000/svg" viewBox="0 0 82.17 158.19"><title>small tree</title><path class="Plan__stem" d="M27.2,117c8.33-1.12,8-2.33,25.73.42,5.75.81,10.79.5,17.8-4.08,6.25-5.06,6.56-11,6.77-14.25a14.19,14.19,0,0,0-4.33-11.5c6-4.62,9.75-8.75,8.88-20.87C81.28,56.14,76.42,50.5,71.5,49.21A16.19,16.19,0,0,0,73,32.75a13.35,13.35,0,0,0-14.87-7C59.29-.62,38.17,0,38.17,0s-17.38.5-17,21C10.62,23.29,6.83,26.18,2.42,36.25A29.6,29.6,0,0,0,5.83,61.38C1.29,64.13,0,68.13,0,75.38A17.13,17.13,0,0,0,8.33,90.71c-2.42,4.17-2.92,12.79,2.33,19.5C14,114.5,21.67,118.13,27.2,117Z"/><path class="Plan__leaf" d="M35.91,28.89c2.38,41.52,0,83.65-3.74,125-.53,5.77,8.48,5.73,9,0,3.78-41.34,6.12-83.47,3.74-125-.33-5.76-9.33-5.8-9,0Z"/><path class="Plan__leaf" d="M44.83,102.15c3.08-7,6.71-14.53,12.57-19.71A17,17,0,0,1,61,80c-.5.25.2-.15.88-.27,5.7-1,3.28-9.65-2.39-8.68-2.89.49-5.73,2.7-7.87,4.54-6.7,5.77-11,14.07-14.54,22-2.31,5.25,5.45,9.84,7.77,4.54Z"/><path class="Plan__leaf" d="M45.45,78.88c-1-11.81-4.23-29.44-16-35.89-5.08-2.79-9.63,5-4.54,7.77,1.16.63.18,0,1,.75a21.46,21.46,0,0,1,3.47,4c4.62,6.83,6.3,15.31,7,23.38.5,5.72,9.51,5.78,9,0Z"/></svg>