<svg xmlns="http://www.w3.org/2000/svg" viewBox="0 0 150.85 137.07"><title>sprout</title><path class="Plan__stem" d="M.19.1S-4.57,65,33.12,68.1,68.55,33,68.55,33,70.28-2.14.19.1Z"/><path class="Plan__stem" d="M150.85,16.77S86.16,9.57,81.66,47.12s33.75,36.72,33.75,36.72S150.46,86.9,150.85,16.77Z"/><path class="Plan__leaf" d="M29.34,35.12a6.4,6.4,0,0,1,1.38,1.05c1.74,1.45,3.44,2.94,5.07,4.51A99.08,99.08,0,0,1,50.15,58.16c14.39,22.21,19.22,48.43,16.91,74.58h9c1.47-31.94,18.45-66.08,44.76-84.81,4.68-3.33.19-11.14-4.54-7.77-29,20.64-47.58,57-49.21,92.58-.27,5.85,8.5,5.69,9,0,3.22-36.53-8-74.64-35.47-99.9a63.09,63.09,0,0,0-6.71-5.49c-4.78-3.3-9.28,4.5-4.54,7.77Z"/></svg>