<svg xmlns="http://www.w3.org/2000/svg" viewBox="0 0 143.69 152.93"><title>large tree</title><path class="Plan__stem" d="M54.93,107.62"/><path class="Plan__stem" d="M98.9,108.88a157.16,157.16,0,0,0-57,0C10.46,114.66,0,84.76,0,73.2S7.19,51.59,7.19,51.59,2.17,36,9.7,27.22s22.61-6.78,22.61-6.78S35.58,1.34,58.95.08,88.6,12.39,88.6,12.39,110.21,3.1,126,17.67c13.07,12.06,11.31,29.15,11.31,29.15s14.23,19.85.08,44.47C120,113.4,98.9,108.88,98.9,108.88Z"/><path class="Plan__leaf" d="M61,152.93s-4.21-.5-4.71-4.5-.79-37.38,2.35-53.75c0,0,.65-1.25-1.73-2.75A70.4,70.4,0,0,0,21.25,76.31c-4.12-3.5,0-4.12,0-4.12s31.5-2.87,40.38,2.25c2.13,1.13,2.13-3.05,2.13-3.05s.75-29.32,3.5-38.82c1.75-3.38,3.63-1.13,3.63-1.13s1,.63,1.13,3.25,2.13,22,6.38,35.87c.88,2,3.38,1,3.38,1s17.75-5.5,40.88-.25c3.75,2.13,5.38,3.75,1.25,6.63-1.75,1-31.37.38-41.75,10.63-1.62,2.13-.62,8.5-.62,8.5s5.13,25.25,12.25,52a3,3,0,0,1-3,3.88Z"/></svg>