<svg xmlns="http://www.w3.org/2000/svg" viewBox="0 0 186.5 186">
  <defs>
  <style>
    .cls-1,.cls-2{fill:none;stroke-miterlimit:10;stroke-width:6px;}
    .cls-1{stroke:#3911de;}
    .cls-2{stroke:#000;}
</style>
</defs>
<title>Puzzle</title>
  <path class="cls-1" d="M93,176.25c0,6.83,6.75,6.75,6.75,6.75H177c6.5,0,6.5-6.75,6.5-6.75V99.75c0-6.75-6.67-6.75-6.67-6.75H145.94v11.56s6.38,3.56,6.44,12.63c-.19,8.25-6.44,13.25-14.12,13.5-8.44,0-13.56-6.06-14.31-13.81a13.77,13.77,0,0,1,6.44-12.31V93H93V56h11.5c4.63,6.38,12.5,6.13,12.5,6.13s13.25-.37,13.25-13.87c-.25-13.37-13.25-14-13.25-14-7.94-.69-12.58,5.92-12.58,5.92H93s.06-23.67.06-30.35,6.69-6.69,6.69-6.69h77.12c6.63,0,6.63,6.63,6.63,6.63v76.5C183.5,93,177,93,177,93"/>
  <path class="cls-2" d="M9.75,93S3,93,3,99.75v76.5S2.92,183,9.75,183h76.5s6.75.08,6.75-6.81c0-1.93.06-30.07.06-30.07H81.81s-2.25,5.94-12.44,5.94c-10.75,0-13.62-9.69-13.62-15.37a13.28,13.28,0,0,1,13.38-12.06,14.68,14.68,0,0,1,12.69,5.81L93,130.25V93H55.88V82S62,78.56,62.13,69.56C62.25,60.38,54.5,56,48,56c-5.62,0-14,5-14,13.63A14.69,14.69,0,0,0,40.19,82V93H9.85S3,93,3,86.25,3,9.75,3,9.75,3,3,9.75,3h76.5s6.81,0,6.81,6.81"/>
</svg>