<svg xmlns="http://www.w3.org/2000/svg" xmlns:xlink="http://www.w3.org/1999/xlink" viewBox="0 0 150.85 137.07"><defs><style>.cls-1{fill:url(#linear-gradient);}.cls-2{fill:url(#linear-gradient-2);}.cls-3{fill:#7f4c00;}</style><linearGradient id="linear-gradient" x1="0.23" y1="0.07" x2="59.79" y2="59.63" gradientUnits="userSpaceOnUse"><stop offset="0" stop-color="#ffb84c"/><stop offset="0.82" stop-color="#f90"/></linearGradient><linearGradient id="linear-gradient-2" x1="97.33" y1="22.76" x2="142.1" y2="67.54" gradientUnits="userSpaceOnUse"><stop offset="0.17" stop-color="#f90"/><stop offset="1" stop-color="#cc7a00"/></linearGradient></defs><title>sprout</title><g id="Layer_2" data-name="Layer 2"><g id="sprout"><path class="cls-1" d="M.19.1S-4.57,65,33.12,68.1,68.55,33,68.55,33,70.28-2.14.19.1Z"/><path class="cls-2" d="M150.85,16.77S86.16,9.57,81.66,47.12s33.75,36.72,33.75,36.72S150.46,86.9,150.85,16.77Z"/><path class="cls-3" d="M29.34,35.12a6.4,6.4,0,0,1,1.38,1.05c1.74,1.45,3.44,2.94,5.07,4.51A99.08,99.08,0,0,1,50.15,58.16c14.39,22.21,19.22,48.43,16.91,74.58h9c1.47-31.94,18.45-66.08,44.76-84.81,4.68-3.33.19-11.14-4.54-7.77-29,20.64-47.58,57-49.21,92.58-.27,5.85,8.5,5.69,9,0,3.22-36.53-8-74.64-35.47-99.9a63.09,63.09,0,0,0-6.71-5.49c-4.78-3.3-9.28,4.5-4.54,7.77Z"/></g></g></svg>