<svg xmlns="http://www.w3.org/2000/svg" xmlns:xlink="http://www.w3.org/1999/xlink" viewBox="0 0 82.17 157.57"><defs><style>.cls-1{fill:url(#linear-gradient);}.cls-2{fill:#7f4c00;}</style><linearGradient id="linear-gradient" x1="2.53" y1="29.2" x2="78.8" y2="105.47" gradientUnits="userSpaceOnUse"><stop offset="0" stop-color="#79b7e1"/><stop offset="0.04" stop-color="#75b2e1"/><stop offset="0.33" stop-color="#5b97e4"/><stop offset="0.5" stop-color="#518de5"/><stop offset="0.62" stop-color="#4b8adc"/><stop offset="0.81" stop-color="#3c81c5"/><stop offset="1" stop-color="#2875a8"/></linearGradient></defs><title>tree_sm</title><g id="Layer_2" data-name="Layer 2"><g id="tree_sm"><path class="cls-1" d="M27.2,117c8.33-1.12,8-2.33,25.73.42,5.75.81,10.79.5,17.8-4.08,6.25-5.06,6.56-11,6.77-14.25a14.19,14.19,0,0,0-4.33-11.5c6-4.62,9.75-8.75,8.88-20.87C81.28,56.14,76.42,50.5,71.5,49.21A16.19,16.19,0,0,0,73,32.75a13.35,13.35,0,0,0-14.87-7C59.29-.62,38.17,0,38.17,0s-17.38.5-17,21C10.62,23.29,6.83,26.18,2.42,36.25A29.6,29.6,0,0,0,5.83,61.38C1.29,64.13,0,68.13,0,75.38A17.13,17.13,0,0,0,8.33,90.71c-2.42,4.17-2.92,12.79,2.33,19.5C14,114.5,21.67,118.13,27.2,117Z"/><path class="cls-2" d="M32.12,155.67c.53.94,3.94,3.54,8.83.38s4.14-64.66,4.14-64.66S45.67,83.71,60.67,76c1.67-2,.53-3.59.53-3.59s-.91-1.42-3-.61-11.36,6.59-11.36,6.59-1.79,1-1.54-1.06,1.92-29.62-1.75-47.81a1.64,1.64,0,0,0-2.42-1.29c-.45.51-.6.78-.67,2.66s2.82,11.92.67,28c-.5,1.48-1.1.63-1.54,0C36,50.31,34.61,48.5,26.14,42.08a1.47,1.47,0,0,0-1.67,0,1.14,1.14,0,0,0,.17,1.42c7.47,5.58,11.43,14.8,13.58,27a87.12,87.12,0,0,1,.65,12.36c-.06,6.32,1.7,21.28-4.58,59.69a61.65,61.65,0,0,1-2.44,10.64A4.48,4.48,0,0,0,32.12,155.67Z"/></g></g></svg>