<svg xmlns="http://www.w3.org/2000/svg" viewBox="0 0 476.51 135.44"><defs><style>.cls-1,.cls-3{fill:#fefefe;}.cls-1{opacity:0.33;}.cls-2{fill:#fff;opacity:0.9;}</style></defs><title>wordmark_inverted</title><g id="Layer_2" data-name="Layer 2"><g id="wordmark_inverted"><path class="cls-1" d="M50.55,21.22c-5.68.75-12.2.22-17.69,1.72a33.06,33.06,0,0,0-13.69,8C11.75,38.27,4.25,48.45,3.34,59.14A92.53,92.53,0,0,0,4.08,76.9c.53,4.74,2.15,9.17,3,13.77,2.27,4.51,4.83,8.89,7.05,13.43,3.42,6.29,6,9.62,11.34,13.74,5.2,3.31,11.53,4.86,17.44,6.41,3.81,1,7.57,2,11.54,1.73a92.16,92.16,0,0,0,9.67-1.59c10.51-1.83,19.53-5.69,26.71-13.87a65.11,65.11,0,0,0,14.38-29.74c2-9.86,2.4-22-.48-31.68-3-10.23-11.93-18.76-20.89-24.12a39.1,39.1,0,0,0-17.3-5.55C61.1,19,55.9,20.51,50.55,21.22Z"/><path class="cls-2" d="M51.25,44.95a18.94,18.94,0,0,1,2.17,5.73,59.91,59.91,0,0,1,11.13-5.42c10.71-3.45,16.72-4,22.19-1.12-.29-2.71-3.35-7.6-5.17-8.73a12,12,0,0,0-5-1.93,33.7,33.7,0,0,0-7.87-.08c-4.31.19-11.93,1.59-13.5,1.86A51.12,51.12,0,0,0,45.33,38,23.76,23.76,0,0,1,51.25,44.95Z"/><path class="cls-2" d="M52.48,32a1.63,1.63,0,0,1-.14-.62c-.07-2-.15-4-.23-6.05-.53,0-1.13,0-1.83-.05a64.86,64.86,0,0,0-6.83.11,19.15,19.15,0,0,0-6.13,1.11,16.71,16.71,0,0,0,6.44,4.26A17.2,17.2,0,0,0,52.48,32Z"/><path class="cls-3" d="M106.63,59.94C89.36,68,69.71,70.61,51.05,66.3,41.24,64,31.13,60.66,24.37,52.76a20.78,20.78,0,0,1-5-12.09C19,36.5,20.48,32.78,21.42,29a29.53,29.53,0,0,0-2.25,2C11.75,38.27,4.25,48.45,3.34,59.14c-.49,5.78.11,12.1.76,17.85a66.66,66.66,0,0,0,3,13.77,105,105,0,0,0,7.05,13.43c3.15,5.28,6.06,10.38,11.34,13.74s11.53,4.86,17.44,6.41c3.81,1,7.57,2,11.54,1.73a92.16,92.16,0,0,0,9.67-1.59c10.51-1.83,19.53-5.69,26.71-13.87a65.11,65.11,0,0,0,14.38-29.74A77.93,77.93,0,0,0,106.63,59.94Z"/><path class="cls-3" d="M62.09,2.72A13.52,13.52,0,0,0,59.2.88,9.51,9.51,0,0,0,56.38,0a5.85,5.85,0,0,0-3,1,2.65,2.65,0,0,0-.74.73c0,.09,0,.76,0,.85.54,10-1.08,19.49-1,29.48a16.42,16.42,0,0,0,3.45-.74c-.43-9.53-2.32-20.67,6.61-28.43A2.31,2.31,0,0,1,62.09,2.72Z"/><path class="cls-3" d="M236.55,133.88H213.78L157.92,43.37h-.62l.39,5q1.09,14.45,1.09,26.42v59H141.92V20.29h22.53l55.71,90h.47q-.16-1.79-.62-13t-.47-17.52V20.29h17Z"/><path class="cls-3" d="M324.9,90.76q0,21.06-10.8,32.86T284,135.44A41.2,41.2,0,0,1,262.75,130a35.89,35.89,0,0,1-14.22-15.62q-5-10.18-5-23.62,0-20.9,10.72-32.63T284.5,46.4q18.65,0,29.52,12T324.9,90.76Zm-62.54,0q0,29.76,22,29.76,21.75,0,21.75-29.76,0-29.45-21.91-29.45-11.5,0-16.67,7.61T262.36,90.76Z"/><path class="cls-3" d="M352.73,133.88,320.1,48h19.27l17.48,50q4.5,12.59,5.44,20.36h.62q.7-5.59,5.44-20.36l17.48-50h19.42l-32.79,85.93Z"/><path class="cls-3" d="M443.1,135.44q-20,0-31.35-11.69t-11.3-32.2q0-21.05,10.49-33.1t28.82-12q17,0,26.88,10.33t9.87,28.44V95H419.25q.39,12.51,6.76,19.23T444,121a66.21,66.21,0,0,0,14.18-1.44,74.29,74.29,0,0,0,14.1-4.78v14.84a56,56,0,0,1-13.52,4.51A83,83,0,0,1,443.1,135.44Zm-3.34-75.21q-8.7,0-13.95,5.52t-6.25,16.08h39q-.16-10.64-5.13-16.12T439.76,60.23Z"/><path class="cls-1" d="M90.39,111.09c-7.11,7.83-16,11.58-26.26,13.37a92.16,92.16,0,0,1-9.67,1.59c-4,.26-7.73-.73-11.54-1.73-5.91-1.55-12.23-3.11-17.44-6.41A28.34,28.34,0,0,1,17,108.8c-10.4,2.57-17,6.34-17,10.54,0,7.76,22.37,14,50,14s50-6.29,50-14C99.92,116.26,96.38,113.41,90.39,111.09Z"/></g></g></svg>